<svg width="8" height="14" viewBox="0 0 8 14" fill="none" xmlns="http://www.w3.org/2000/svg">
<path d="M0.292818 0.292818C0.105327 0.480348 0 0.734669 0 0.999849C0 1.26503 0.105327 1.51935 0.292818 1.70688L5.24282 6.65688L0.292818 11.6069C0.116388 11.7964 0.0203478 12.047 0.0249052 12.3059C0.0294626 12.5647 0.134262 12.8118 0.317253 12.995C0.500244 13.1782 0.747158 13.2832 1.00604 13.2881C1.26493 13.2929 1.5156 13.1972 1.70532 13.0209L7.36313 7.36469C7.55062 7.17716 7.65595 6.92284 7.65595 6.65766C7.65595 6.39248 7.55062 6.13816 7.36313 5.95063L1.70688 0.292818C1.51935 0.105327 1.26503 0 0.999849 0C0.734669 0 0.480348 0.105327 0.292818 0.292818Z" fill="#575141"/>
</svg>
