<svg width="16" height="16" viewBox="0 0 16 16" fill="none" xmlns="http://www.w3.org/2000/svg">
<path d="M10.7062 1.63596C10.8937 1.82349 10.999 2.07781 10.999 2.34299C10.999 2.60817 10.8937 2.86249 10.7062 3.05002L5.75621 8.00002L10.7062 12.95C10.8826 13.1395 10.9787 13.3901 10.9741 13.649C10.9696 13.9079 10.8648 14.1549 10.6818 14.3381C10.4988 14.5213 10.2519 14.6264 9.99298 14.6312C9.73409 14.6361 9.48342 14.5403 9.29371 14.3641L3.63589 8.70783C3.4484 8.5203 3.34308 8.26598 3.34308 8.0008C3.34308 7.73562 3.4484 7.4813 3.63589 7.29377L9.29214 1.63596C9.47967 1.44847 9.734 1.34314 9.99917 1.34314C10.2644 1.34314 10.5187 1.44847 10.7062 1.63596Z" fill="#575141"/>
</svg>
