<svg width="24" height="24" viewBox="0 0 24 24" fill="none" xmlns="http://www.w3.org/2000/svg">
<g clip-path="url(#clip0_626_1630)">
<path fill-rule="evenodd" clip-rule="evenodd" d="M23.4086 2.28838C23.6337 2.06332 23.7601 1.75808 23.7601 1.43981C23.7601 1.12153 23.6337 0.816291 23.4086 0.591236C23.1836 0.366181 22.8783 0.239746 22.5601 0.239746C22.2418 0.239746 21.9365 0.366181 21.7115 0.591236L12.0001 10.3027L2.28862 0.591236C2.06357 0.366181 1.75833 0.239746 1.44005 0.239746C1.12178 0.239746 0.816535 0.366181 0.59148 0.591236C0.366425 0.816291 0.23999 1.12153 0.23999 1.43981C0.23999 1.75808 0.366425 2.06332 0.59148 2.28838L10.3029 11.9998L0.59148 21.7112C0.366425 21.9363 0.23999 22.2415 0.23999 22.5598C0.23999 22.8781 0.366425 23.1833 0.59148 23.4084C0.816535 23.6334 1.12178 23.7599 1.44005 23.7599C1.75833 23.7599 2.06357 23.6334 2.28862 23.4084L12.0001 13.6969L21.7115 23.4084C21.9365 23.6334 22.2418 23.7599 22.5601 23.7599C22.8783 23.7599 23.1836 23.6334 23.4086 23.4084C23.6337 23.1833 23.7601 22.8781 23.7601 22.5598C23.7601 22.2415 23.6337 21.9363 23.4086 21.7112L13.6972 11.9998L23.4086 2.28838Z" fill="black"/>
</g>
<defs>
<clipPath id="clip0_626_1630">
<rect width="24" height="24" fill="white"/>
</clipPath>
</defs>
</svg>
