<svg width="15" height="15" viewBox="0 0 15 15" fill="none" xmlns="http://www.w3.org/2000/svg">
<path d="M13.5326 3.95825C13.7071 3.78377 13.8456 3.57662 13.9401 3.34863C14.0345 3.12064 14.0832 2.87628 14.0832 2.62949C14.0832 2.3827 14.0347 2.13833 13.9403 1.91031C13.8458 1.6823 13.7074 1.47511 13.533 1.30059C13.3585 1.12606 13.1513 0.98761 12.9233 0.89314C12.6953 0.79867 12.451 0.750031 12.2042 0.75C11.9574 0.749969 11.713 0.798547 11.485 0.89296C11.257 0.987372 11.0498 1.12577 10.8753 1.30025L1.97796 10.1996C1.82317 10.3539 1.7087 10.5439 1.64462 10.7529L0.763956 13.6543C0.746726 13.7119 0.745425 13.7732 0.76019 13.8315C0.774956 13.8898 0.805236 13.9431 0.84782 13.9856C0.890405 14.0281 0.943703 14.0583 1.00206 14.073C1.06042 14.0876 1.12166 14.0862 1.17929 14.0689L4.08129 13.1889C4.29007 13.1254 4.48007 13.0116 4.63462 12.8576L13.5326 3.95825Z" fill="white"/>
<path d="M8.08329 13.4169H13.4166M13.5326 3.95825C13.7071 3.78377 13.8456 3.57662 13.9401 3.34863C14.0345 3.12064 14.0832 2.87628 14.0832 2.62949C14.0832 2.3827 14.0347 2.13833 13.9403 1.91031C13.8458 1.6823 13.7074 1.47511 13.533 1.30059C13.3585 1.12606 13.1513 0.98761 12.9233 0.89314C12.6953 0.79867 12.451 0.750031 12.2042 0.75C11.9574 0.749969 11.713 0.798547 11.485 0.89296C11.257 0.987372 11.0498 1.12577 10.8753 1.30025L1.97796 10.1996C1.82317 10.3539 1.7087 10.5439 1.64462 10.7529L0.763956 13.6543C0.746726 13.7119 0.745425 13.7732 0.76019 13.8315C0.774956 13.8898 0.805236 13.9431 0.84782 13.9856C0.890405 14.0281 0.943703 14.0583 1.00206 14.073C1.06042 14.0876 1.12166 14.0862 1.17929 14.0689L4.08129 13.1889C4.29007 13.1254 4.48007 13.0116 4.63462 12.8576L13.5326 3.95825Z" stroke="#828282" stroke-width="1.5" stroke-linecap="round" stroke-linejoin="round"/>
</svg>
