<svg width="10" height="10" viewBox="0 0 10 10" fill="none" xmlns="http://www.w3.org/2000/svg">
<path d="M8.73242 1.68359C7.81836 0.652344 6.48828 0 5 0C2.23828 0 0 2.23828 0 5H1.25C1.25 2.92773 2.92773 1.25 5 1.25C6.14258 1.25 7.15625 1.76758 7.8418 2.57422L6.66602 3.75H10V0.416016L8.73242 1.68359ZM5 8.75C3.85742 8.75 2.84375 8.23242 2.1582 7.42578L3.33398 6.25H0V9.58398L1.26758 8.31641C2.18164 9.34766 3.51367 10 5 10C7.76172 10 10 7.76172 10 5H8.75C8.75 7.07227 7.07227 8.75 5 8.75Z" fill="black"/>
</svg>
