<svg width="16" height="16" viewBox="0 0 16 16" fill="none" xmlns="http://www.w3.org/2000/svg">
<path d="M5.29373 1.63594C5.10624 1.82347 5.00092 2.07779 5.00092 2.34297C5.00092 2.60815 5.10624 2.86247 5.29373 3.05L10.2437 8L5.29373 12.95C5.1173 13.1395 5.02126 13.3901 5.02582 13.649C5.03038 13.9079 5.13518 14.1549 5.31817 14.3381C5.50116 14.5213 5.74807 14.6264 6.00696 14.6312C6.26585 14.636 6.51652 14.5403 6.70623 14.3641L12.364 8.70781C12.5515 8.52028 12.6569 8.26596 12.6569 8.00078C12.6569 7.7356 12.5515 7.48128 12.364 7.29375L6.7078 1.63594C6.52027 1.44845 6.26594 1.34312 6.00076 1.34312C5.73558 1.34312 5.48126 1.44845 5.29373 1.63594Z" fill="#575141"/>
</svg>
