<svg width="18" height="18" viewBox="0 0 18 18" fill="none" xmlns="http://www.w3.org/2000/svg">
<path d="M11.1034 11.9641L16.0046 16.8665C16.0612 16.9231 16.1284 16.968 16.2023 16.9986C16.2763 17.0293 16.3555 17.045 16.4356 17.045C16.5156 17.045 16.5948 17.0293 16.6688 16.9986C16.7427 16.968 16.8099 16.9231 16.8665 16.8665C16.9231 16.8099 16.968 16.7427 16.9986 16.6688C17.0293 16.5948 17.045 16.5156 17.045 16.4356C17.045 16.3555 17.0293 16.2763 16.9986 16.2023C16.968 16.1284 16.9231 16.0612 16.8665 16.0046L1.04042 0.178508C0.983827 0.121914 0.91664 0.0770212 0.842696 0.0463927C0.768753 0.0157642 0.689501 5.96315e-10 0.609465 0C0.529429 -5.96315e-10 0.450176 0.0157642 0.376233 0.0463927C0.302289 0.0770212 0.235102 0.121914 0.178508 0.178508C0.121914 0.235102 0.0770212 0.302289 0.0463927 0.376233C0.0157642 0.450176 -5.96315e-10 0.529429 0 0.609465C5.96315e-10 0.689501 0.0157642 0.768753 0.0463927 0.842696C0.0770212 0.91664 0.121914 0.983827 0.178508 1.04042L4.11068 4.9726C3.57562 5.35187 3.09407 5.80147 2.67903 6.30929C2.09152 7.03018 1.63161 7.84623 1.3192 8.72216C1.29364 8.79642 1.26199 8.89868 1.26199 8.89868L1.24007 8.97416C1.24007 8.97416 1.14755 9.5792 1.67225 9.71799C1.82819 9.7592 1.99412 9.73684 2.13358 9.65581C2.27305 9.57478 2.37465 9.4417 2.41607 9.28581L2.41729 9.28216L2.42703 9.25173L2.46964 9.11903C2.73498 8.37949 3.12399 7.69039 3.62007 7.08112C4.0109 6.60258 4.4723 6.18633 4.98842 5.84668L6.90946 7.76773C6.5218 8.0107 6.19391 8.33795 5.95017 8.72513C5.70643 9.11231 5.55311 9.54946 5.50163 10.0041C5.45015 10.4587 5.50182 10.919 5.65281 11.3509C5.80379 11.7828 6.05021 12.1751 6.37372 12.4986C6.69723 12.8221 7.08951 13.0685 7.52139 13.2195C7.95328 13.3705 8.41364 13.4222 8.86825 13.3707C9.32286 13.3192 9.76001 13.1659 10.1472 12.9222C10.5344 12.6784 10.8616 12.3505 11.1046 11.9629M10.2037 11.062C10.087 11.3372 9.90453 11.5795 9.67229 11.7677C9.44005 11.9559 9.16516 12.0843 8.87175 12.1414C8.57834 12.1986 8.27539 12.1828 7.98948 12.0956C7.70358 12.0083 7.44347 11.8522 7.23199 11.6409C7.02051 11.4297 6.86413 11.1697 6.77657 10.8839C6.68902 10.5981 6.67297 10.2951 6.72983 10.0017C6.78669 9.7082 6.91472 9.43318 7.10269 9.20075C7.29066 8.96832 7.53282 8.78558 7.8079 8.66859L10.2037 11.062ZM6.47729 3.89642L7.51694 4.93607C7.83346 4.89225 8.16865 4.87033 8.52251 4.87033C11.0109 4.87033 12.5229 5.9806 13.4262 7.08233C13.9222 7.69161 14.3113 8.38071 14.5766 9.12025C14.5969 9.17949 14.6111 9.22373 14.6192 9.25294L14.6289 9.28338V9.28703L14.6302 9.28825C14.6752 9.44017 14.7777 9.56855 14.9159 9.64608C15.0541 9.72362 15.2171 9.7442 15.3702 9.70346C15.5234 9.66272 15.6546 9.56386 15.736 9.42791C15.8174 9.29195 15.8426 9.1296 15.8062 8.97538V8.97173L15.8049 8.96686L15.8001 8.95103C15.7795 8.874 15.7551 8.79802 15.727 8.72338C15.4146 7.84745 14.9547 7.0314 14.3672 6.31051C13.2764 4.97868 11.4394 3.65294 8.52494 3.65294C7.77259 3.65294 7.09207 3.74059 6.47851 3.8952" fill="#575141"/>
</svg>
