<svg width="1068" height="122" viewBox="0 0 1068 122" fill="none" xmlns="http://www.w3.org/2000/svg">
<mask id="path-1-inside-1_422_4528" fill="white">
<path d="M1026 0C1032.63 0 1038 5.37258 1038 12V40.2158L1065 55.8037C1069 58.1131 1069 63.8869 1065 66.1963L1038 81.7842V110C1038 116.627 1032.63 122 1026 122H12C5.37258 122 1.28855e-07 116.627 0 110V12C1.28855e-07 5.37258 5.37258 0 12 0H1026Z"/>
</mask>
<path d="M1026 0C1032.63 0 1038 5.37258 1038 12V40.2158L1065 55.8037C1069 58.1131 1069 63.8869 1065 66.1963L1038 81.7842V110C1038 116.627 1032.63 122 1026 122H12C5.37258 122 1.28855e-07 116.627 0 110V12C1.28855e-07 5.37258 5.37258 0 12 0H1026Z" fill="#FFF9EB"/>
<path d="M1038 12H1040V12H1038ZM1038 40.2158H1036V41.3705L1037 41.9479L1038 40.2158ZM1065 55.8037L1066 54.0717V54.0716L1065 55.8037ZM1065 66.1963L1066 67.9284V67.9283L1065 66.1963ZM1038 81.7842L1037 80.0521L1036 80.6295V81.7842H1038ZM1038 110H1040V110H1038ZM0 110H-2V110H0ZM0 12H-2V12H0ZM1026 0V2C1031.52 2 1036 6.47715 1036 12H1038H1040C1040 4.26801 1033.73 -2 1026 -2V0ZM1038 12H1036V40.2158H1038H1040V12H1038ZM1038 40.2158L1037 41.9479L1064 57.5358L1065 55.8037L1066 54.0716L1039 38.4838L1038 40.2158ZM1065 55.8037L1064 57.5358C1066.67 59.0754 1066.67 62.9246 1064 64.4642L1065 66.1963L1066 67.9283C1071.33 64.8491 1071.33 57.1509 1066 54.0717L1065 55.8037ZM1065 66.1963L1064 64.4642L1037 80.0521L1038 81.7842L1039 83.5162L1066 67.9284L1065 66.1963ZM1038 81.7842H1036V110H1038H1040V81.7842H1038ZM1038 110H1036C1036 115.523 1031.52 120 1026 120V122V124C1033.73 124 1040 117.732 1040 110H1038ZM1026 122V120H12V122V124H1026V122ZM12 122V120C6.47715 120 2 115.523 2 110H0H-2C-2 117.732 4.26801 124 12 124V122ZM0 110H2V12H0H-2V110H0ZM0 12H2C2 6.47715 6.47715 2 12 2V0V-2C4.26801 -2 -2 4.26801 -2 12H0ZM12 0V2H1026V0V-2H12V0Z" fill="#E5D7B2" mask="url(#path-1-inside-1_422_4528)"/>
</svg>
