<svg width="16" height="16" viewBox="0 0 16 16" fill="none" xmlns="http://www.w3.org/2000/svg">
<path d="M3.99984 13.3335C3.63317 13.3335 3.31939 13.2031 3.0585 12.9422C2.79761 12.6813 2.66695 12.3673 2.6665 12.0002V10.6669C2.6665 10.478 2.7305 10.3198 2.8585 10.1922C2.9865 10.0647 3.14473 10.0006 3.33317 10.0002C3.52162 9.99976 3.68006 10.0638 3.8085 10.1922C3.93695 10.3207 4.00073 10.4789 3.99984 10.6669V12.0002H11.9998V10.6669C11.9998 10.478 12.0638 10.3198 12.1918 10.1922C12.3198 10.0647 12.4781 10.0006 12.6665 10.0002C12.8549 9.99976 13.0134 10.0638 13.1418 10.1922C13.2703 10.3207 13.3341 10.4789 13.3332 10.6669V12.0002C13.3332 12.3669 13.2027 12.6809 12.9418 12.9422C12.6809 13.2035 12.3669 13.334 11.9998 13.3335H3.99984ZM7.33317 5.23354L6.08317 6.48354C5.94984 6.61687 5.79162 6.68087 5.6085 6.67554C5.42539 6.67021 5.26695 6.60065 5.13317 6.46687C5.01095 6.33354 4.94695 6.17798 4.94117 6.00021C4.93539 5.82243 4.99939 5.66687 5.13317 5.53354L7.53317 3.13354C7.59984 3.06687 7.67206 3.01976 7.74984 2.99221C7.82762 2.96465 7.91095 2.95065 7.99984 2.95021C8.08873 2.94976 8.17206 2.96376 8.24984 2.99221C8.32762 3.02065 8.39984 3.06776 8.4665 3.13354L10.8665 5.53354C10.9998 5.66687 11.0638 5.82243 11.0585 6.00021C11.0532 6.17798 10.9892 6.33354 10.8665 6.46687C10.7332 6.60021 10.5749 6.66976 10.3918 6.67554C10.2087 6.68132 10.0503 6.61732 9.9165 6.48354L8.6665 5.23354V10.0002C8.6665 10.1891 8.6025 10.3475 8.4745 10.4755C8.3465 10.6035 8.18828 10.6673 7.99984 10.6669C7.81139 10.6664 7.65317 10.6024 7.52517 10.4749C7.39717 10.3473 7.33317 10.1891 7.33317 10.0002V5.23354Z" fill="#575141"/>
</svg>
