<svg width="32" height="32" viewBox="0 0 32 32" fill="none" xmlns="http://www.w3.org/2000/svg">
<g clip-path="url(#clip0_951_263)">
<rect width="32" height="32" rx="16" fill="#867853"/>
<path d="M6.66675 32.6665C6.66675 30.1911 7.65008 27.8172 9.40042 26.0668C11.1508 24.3165 13.5247 23.3332 16.0001 23.3332C18.4754 23.3332 20.8494 24.3165 22.5997 26.0668C24.3501 27.8172 25.3334 30.1911 25.3334 32.6665H6.66675ZM16.0001 22.1665C12.1326 22.1665 9.00008 19.034 9.00008 15.1665C9.00008 11.299 12.1326 8.1665 16.0001 8.1665C19.8676 8.1665 23.0001 11.299 23.0001 15.1665C23.0001 19.034 19.8676 22.1665 16.0001 22.1665Z" fill="white"/>
</g>
<defs>
<clipPath id="clip0_951_263">
<rect width="32" height="32" rx="16" fill="white"/>
</clipPath>
</defs>
</svg>
